<svg width="160" height="128" viewBox="0 0 160 128" fill="none" xmlns="http://www.w3.org/2000/svg">
<rect width="160" height="128" rx="15" fill="#EDEDED"/>
<g clip-path="url(#clip0_2603_1936)">
<path d="M66 38H68C69.0609 38 70.0783 37.5786 70.8284 36.8284C71.5786 36.0783 72 35.0609 72 34C72 33.4696 72.2107 32.9609 72.5858 32.5858C72.9609 32.2107 73.4696 32 74 32H86C86.5304 32 87.0391 32.2107 87.4142 32.5858C87.7893 32.9609 88 33.4696 88 34C88 35.0609 88.4214 36.0783 89.1716 36.8284C89.9217 37.5786 90.9391 38 92 38H94C95.0609 38 96.0783 38.4214 96.8284 39.1716C97.5786 39.9217 98 40.9391 98 42V60C98 61.0609 97.5786 62.0783 96.8284 62.8284C96.0783 63.5786 95.0609 64 94 64H66C64.9391 64 63.9217 63.5786 63.1716 62.8284C62.4214 62.0783 62 61.0609 62 60V42C62 40.9391 62.4214 39.9217 63.1716 39.1716C63.9217 38.4214 64.9391 38 66 38" stroke="black" stroke-width="2" stroke-linecap="round" stroke-linejoin="round"/>
<path d="M80 56C83.3137 56 86 53.3137 86 50C86 46.6863 83.3137 44 80 44C76.6863 44 74 46.6863 74 50C74 53.3137 76.6863 56 80 56Z" stroke="black" stroke-width="2" stroke-linecap="round" stroke-linejoin="round"/>
</g>
<path d="M56.8651 90.1477H55.0923C55.0241 89.7689 54.8973 89.4356 54.7116 89.1477C54.526 88.8598 54.2988 88.6155 54.0298 88.4148C53.7609 88.214 53.4598 88.0625 53.1264 87.9602C52.7969 87.858 52.4465 87.8068 52.0753 87.8068C51.4048 87.8068 50.8045 87.9754 50.2741 88.3125C49.7476 88.6496 49.331 89.1439 49.0241 89.7955C48.7211 90.447 48.5696 91.2424 48.5696 92.1818C48.5696 93.1288 48.7211 93.928 49.0241 94.5795C49.331 95.2311 49.7495 95.7235 50.2798 96.0568C50.8101 96.3902 51.4067 96.5568 52.0696 96.5568C52.437 96.5568 52.7855 96.5076 53.1151 96.4091C53.4484 96.3068 53.7495 96.1572 54.0185 95.9602C54.2874 95.7633 54.5147 95.5227 54.7003 95.2386C54.8897 94.9508 55.0204 94.6212 55.0923 94.25L56.8651 94.2557C56.7704 94.8277 56.5866 95.3542 56.3139 95.8352C56.045 96.3125 55.6984 96.7254 55.2741 97.0739C54.8537 97.4186 54.3726 97.6856 53.831 97.875C53.2893 98.0644 52.6984 98.1591 52.0582 98.1591C51.0507 98.1591 50.1529 97.9205 49.3651 97.4432C48.5772 96.9621 47.956 96.2746 47.5014 95.3807C47.0507 94.4867 46.8253 93.4205 46.8253 92.1818C46.8253 90.9394 47.0526 89.8731 47.5071 88.983C47.9616 88.089 48.5829 87.4034 49.3707 86.9261C50.1586 86.4451 51.0545 86.2045 52.0582 86.2045C52.6757 86.2045 53.2514 86.2936 53.7855 86.4716C54.3234 86.6458 54.8063 86.9034 55.2344 87.2443C55.6624 87.5814 56.0166 87.9943 56.2969 88.483C56.5772 88.9678 56.7666 89.5227 56.8651 90.1477ZM61.3693 98.1932C60.8163 98.1932 60.3163 98.0909 59.8693 97.8864C59.4223 97.678 59.0682 97.3769 58.8068 96.983C58.5492 96.589 58.4205 96.1061 58.4205 95.5341C58.4205 95.0417 58.5152 94.6364 58.7045 94.3182C58.8939 94 59.1496 93.7481 59.4716 93.5625C59.7936 93.3769 60.1534 93.2367 60.5511 93.142C60.9489 93.0473 61.3542 92.9754 61.767 92.9261C62.2898 92.8655 62.714 92.8163 63.0398 92.7784C63.3655 92.7367 63.6023 92.6705 63.75 92.5795C63.8977 92.4886 63.9716 92.3409 63.9716 92.1364V92.0966C63.9716 91.6004 63.8314 91.2159 63.5511 90.9432C63.2746 90.6705 62.8617 90.5341 62.3125 90.5341C61.7405 90.5341 61.2898 90.661 60.9602 90.9148C60.6345 91.1648 60.4091 91.4432 60.2841 91.75L58.6875 91.3864C58.8769 90.8561 59.1534 90.428 59.517 90.1023C59.8845 89.7727 60.3068 89.5341 60.7841 89.3864C61.2614 89.2348 61.7633 89.1591 62.2898 89.1591C62.6383 89.1591 63.0076 89.2008 63.3977 89.2841C63.7917 89.3636 64.1591 89.5114 64.5 89.7273C64.8447 89.9432 65.1269 90.2519 65.3466 90.6534C65.5663 91.0511 65.6761 91.5682 65.6761 92.2045V98H64.017V96.8068H63.9489C63.839 97.0265 63.6742 97.2424 63.4545 97.4545C63.2348 97.6667 62.9527 97.8428 62.608 97.983C62.2633 98.1231 61.8504 98.1932 61.3693 98.1932ZM61.7386 96.8295C62.2083 96.8295 62.6098 96.7367 62.9432 96.5511C63.2803 96.3655 63.536 96.1231 63.7102 95.8239C63.8883 95.5208 63.9773 95.197 63.9773 94.8523V93.7273C63.9167 93.7879 63.7992 93.8447 63.625 93.8977C63.4545 93.947 63.2595 93.9905 63.0398 94.0284C62.8201 94.0625 62.6061 94.0947 62.3977 94.125C62.1894 94.1515 62.0152 94.1742 61.875 94.1932C61.5455 94.2348 61.2443 94.3049 60.9716 94.4034C60.7027 94.5019 60.4867 94.6439 60.3239 94.8295C60.1648 95.0114 60.0852 95.2538 60.0852 95.5568C60.0852 95.9773 60.2405 96.2955 60.5511 96.5114C60.8617 96.7235 61.2576 96.8295 61.7386 96.8295ZM67.9389 98V89.2727H69.5696V90.6932H69.6776C69.8594 90.2121 70.1567 89.8371 70.5696 89.5682C70.9825 89.2955 71.4768 89.1591 72.0526 89.1591C72.6359 89.1591 73.1245 89.2955 73.5185 89.5682C73.9162 89.8409 74.2098 90.2159 74.3991 90.6932H74.4901C74.6984 90.2273 75.0298 89.8561 75.4844 89.5795C75.9389 89.2992 76.4806 89.1591 77.1094 89.1591C77.901 89.1591 78.5469 89.4072 79.0469 89.9034C79.5507 90.3996 79.8026 91.1477 79.8026 92.1477V98H78.1037V92.3068C78.1037 91.7159 77.9427 91.2879 77.6207 91.0227C77.2988 90.7576 76.9143 90.625 76.4673 90.625C75.9143 90.625 75.4844 90.7955 75.1776 91.1364C74.8707 91.4735 74.7173 91.9072 74.7173 92.4375V98H73.0241V92.1989C73.0241 91.7254 72.8764 91.3447 72.581 91.0568C72.2855 90.7689 71.901 90.625 71.4276 90.625C71.1056 90.625 70.8082 90.7102 70.5355 90.8807C70.2666 91.0473 70.0488 91.2803 69.8821 91.5795C69.7192 91.8788 69.6378 92.2254 69.6378 92.6193V98H67.9389ZM85.8409 98.1761C84.9811 98.1761 84.2405 97.9924 83.6193 97.625C83.0019 97.2538 82.5246 96.733 82.1875 96.0625C81.8542 95.3883 81.6875 94.5985 81.6875 93.6932C81.6875 92.7992 81.8542 92.0114 82.1875 91.3295C82.5246 90.6477 82.9943 90.1155 83.5966 89.733C84.2027 89.3504 84.911 89.1591 85.7216 89.1591C86.214 89.1591 86.6913 89.2405 87.1534 89.4034C87.6155 89.5663 88.0303 89.822 88.3977 90.1705C88.7652 90.5189 89.0549 90.9716 89.267 91.5284C89.4792 92.0814 89.5852 92.7538 89.5852 93.5455V94.1477H82.6477V92.875H87.9205C87.9205 92.428 87.8295 92.0322 87.6477 91.6875C87.4659 91.339 87.2102 91.0644 86.8807 90.8636C86.5549 90.6629 86.1723 90.5625 85.733 90.5625C85.2557 90.5625 84.839 90.6799 84.483 90.9148C84.1307 91.1458 83.858 91.4489 83.6648 91.8239C83.4754 92.1951 83.3807 92.5985 83.3807 93.0341V94.0284C83.3807 94.6117 83.483 95.108 83.6875 95.517C83.8958 95.9261 84.1856 96.2386 84.5568 96.4545C84.928 96.6667 85.3617 96.7727 85.858 96.7727C86.1799 96.7727 86.4735 96.7273 86.7386 96.6364C87.0038 96.5417 87.233 96.4015 87.4261 96.2159C87.6193 96.0303 87.767 95.8011 87.8693 95.5284L89.4773 95.8182C89.3485 96.2917 89.1174 96.7064 88.7841 97.0625C88.4545 97.4148 88.0398 97.6894 87.5398 97.8864C87.0436 98.0795 86.4773 98.1761 85.8409 98.1761ZM91.4702 98V89.2727H93.1122V90.6591H93.2031C93.3622 90.1894 93.6425 89.8201 94.044 89.5511C94.4493 89.2784 94.9077 89.142 95.419 89.142C95.5251 89.142 95.6501 89.1458 95.794 89.1534C95.9418 89.161 96.0573 89.1705 96.1406 89.1818V90.8068C96.0724 90.7879 95.9512 90.767 95.777 90.7443C95.6027 90.7178 95.4285 90.7045 95.2543 90.7045C94.8527 90.7045 94.4948 90.7898 94.1804 90.9602C93.8698 91.1269 93.6236 91.3598 93.4418 91.6591C93.2599 91.9545 93.169 92.2917 93.169 92.6705V98H91.4702ZM100.072 98.1932C99.5194 98.1932 99.0194 98.0909 98.5724 97.8864C98.1255 97.678 97.7713 97.3769 97.5099 96.983C97.2524 96.589 97.1236 96.1061 97.1236 95.5341C97.1236 95.0417 97.2183 94.6364 97.4077 94.3182C97.5971 94 97.8527 93.7481 98.1747 93.5625C98.4967 93.3769 98.8565 93.2367 99.2543 93.142C99.652 93.0473 100.057 92.9754 100.47 92.9261C100.993 92.8655 101.417 92.8163 101.743 92.7784C102.069 92.7367 102.305 92.6705 102.453 92.5795C102.601 92.4886 102.675 92.3409 102.675 92.1364V92.0966C102.675 91.6004 102.535 91.2159 102.254 90.9432C101.978 90.6705 101.565 90.5341 101.016 90.5341C100.444 90.5341 99.9929 90.661 99.6634 90.9148C99.3376 91.1648 99.1122 91.4432 98.9872 91.75L97.3906 91.3864C97.58 90.8561 97.8565 90.428 98.2202 90.1023C98.5876 89.7727 99.0099 89.5341 99.4872 89.3864C99.9645 89.2348 100.466 89.1591 100.993 89.1591C101.341 89.1591 101.711 89.2008 102.101 89.2841C102.495 89.3636 102.862 89.5114 103.203 89.7273C103.548 89.9432 103.83 90.2519 104.05 90.6534C104.269 91.0511 104.379 91.5682 104.379 92.2045V98H102.72V96.8068H102.652C102.542 97.0265 102.377 97.2424 102.158 97.4545C101.938 97.6667 101.656 97.8428 101.311 97.983C100.966 98.1231 100.554 98.1932 100.072 98.1932ZM100.442 96.8295C100.911 96.8295 101.313 96.7367 101.646 96.5511C101.983 96.3655 102.239 96.1231 102.413 95.8239C102.591 95.5208 102.68 95.197 102.68 94.8523V93.7273C102.62 93.7879 102.502 93.8447 102.328 93.8977C102.158 93.947 101.963 93.9905 101.743 94.0284C101.523 94.0625 101.309 94.0947 101.101 94.125C100.893 94.1515 100.718 94.1742 100.578 94.1932C100.249 94.2348 99.9474 94.3049 99.6747 94.4034C99.4058 94.5019 99.1899 94.6439 99.027 94.8295C98.8679 95.0114 98.7884 95.2538 98.7884 95.5568C98.7884 95.9773 98.9437 96.2955 99.2543 96.5114C99.5649 96.7235 99.9607 96.8295 100.442 96.8295ZM113.182 91.4034L111.642 91.6761C111.578 91.4792 111.475 91.2917 111.335 91.1136C111.199 90.9356 111.013 90.7898 110.778 90.6761C110.544 90.5625 110.25 90.5057 109.898 90.5057C109.417 90.5057 109.015 90.6136 108.693 90.8295C108.371 91.0417 108.21 91.3163 108.21 91.6534C108.21 91.9451 108.318 92.1799 108.534 92.358C108.75 92.536 109.098 92.6818 109.58 92.7955L110.966 93.1136C111.769 93.2992 112.367 93.5852 112.761 93.9716C113.155 94.358 113.352 94.8598 113.352 95.4773C113.352 96 113.201 96.4659 112.898 96.875C112.598 97.2803 112.18 97.5985 111.642 97.8295C111.108 98.0606 110.489 98.1761 109.784 98.1761C108.807 98.1761 108.009 97.9678 107.392 97.5511C106.775 97.1307 106.396 96.5341 106.256 95.7614L107.898 95.5114C108 95.9394 108.21 96.2633 108.528 96.483C108.847 96.6989 109.261 96.8068 109.773 96.8068C110.33 96.8068 110.775 96.6913 111.108 96.4602C111.441 96.2254 111.608 95.9394 111.608 95.6023C111.608 95.3295 111.506 95.1004 111.301 94.9148C111.1 94.7292 110.792 94.589 110.375 94.4943L108.898 94.1705C108.083 93.9848 107.481 93.6894 107.091 93.2841C106.705 92.8788 106.511 92.3655 106.511 91.7443C106.511 91.2292 106.655 90.7784 106.943 90.392C107.231 90.0057 107.629 89.7045 108.136 89.4886C108.644 89.2689 109.225 89.1591 109.881 89.1591C110.824 89.1591 111.566 89.3636 112.108 89.7727C112.65 90.178 113.008 90.7216 113.182 91.4034Z" fill="black"/>
<defs>
<clipPath id="clip0_2603_1936">
<rect width="48" height="48" fill="white" transform="translate(56 24)"/>
</clipPath>
</defs>
</svg>
