<svg width="160" height="128" viewBox="0 0 160 128" fill="none" xmlns="http://www.w3.org/2000/svg">
<rect width="160" height="128" rx="15" fill="#EDEDED"/>
<g clip-path="url(#clip0_2603_1933)">
<path d="M96 32H64C62.8954 32 62 32.8954 62 34V54C62 55.1046 62.8954 56 64 56H96C97.1046 56 98 55.1046 98 54V34C98 32.8954 97.1046 32 96 32Z" stroke="black" stroke-width="2" stroke-linecap="round" stroke-linejoin="round"/>
<path d="M70 64H90" stroke="black" stroke-width="2" stroke-linecap="round" stroke-linejoin="round"/>
<path d="M74 56V64" stroke="black" stroke-width="2" stroke-linecap="round" stroke-linejoin="round"/>
<path d="M86 56V64" stroke="black" stroke-width="2" stroke-linecap="round" stroke-linejoin="round"/>
<path d="M62.8572 51.4286H97.1429" stroke="black" stroke-width="2" stroke-linecap="round"/>
</g>
<path d="M48.4901 90.1477H46.7173C46.6491 89.7689 46.5223 89.4356 46.3366 89.1477C46.151 88.8598 45.9238 88.6155 45.6548 88.4148C45.3859 88.214 45.0848 88.0625 44.7514 87.9602C44.4219 87.858 44.0715 87.8068 43.7003 87.8068C43.0298 87.8068 42.4295 87.9754 41.8991 88.3125C41.3726 88.6496 40.956 89.1439 40.6491 89.7955C40.3461 90.447 40.1946 91.2424 40.1946 92.1818C40.1946 93.1288 40.3461 93.928 40.6491 94.5795C40.956 95.2311 41.3745 95.7235 41.9048 96.0568C42.4351 96.3902 43.0317 96.5568 43.6946 96.5568C44.062 96.5568 44.4105 96.5076 44.7401 96.4091C45.0734 96.3068 45.3745 96.1572 45.6435 95.9602C45.9124 95.7633 46.1397 95.5227 46.3253 95.2386C46.5147 94.9508 46.6454 94.6212 46.7173 94.25L48.4901 94.2557C48.3954 94.8277 48.2116 95.3542 47.9389 95.8352C47.67 96.3125 47.3234 96.7254 46.8991 97.0739C46.4787 97.4186 45.9976 97.6856 45.456 97.875C44.9143 98.0644 44.3234 98.1591 43.6832 98.1591C42.6757 98.1591 41.7779 97.9205 40.9901 97.4432C40.2022 96.9621 39.581 96.2746 39.1264 95.3807C38.6757 94.4867 38.4503 93.4205 38.4503 92.1818C38.4503 90.9394 38.6776 89.8731 39.1321 88.983C39.5866 88.089 40.2079 87.4034 40.9957 86.9261C41.7836 86.4451 42.6795 86.2045 43.6832 86.2045C44.3007 86.2045 44.8764 86.2936 45.4105 86.4716C45.9484 86.6458 46.4313 86.9034 46.8594 87.2443C47.2874 87.5814 47.6416 87.9943 47.9219 88.483C48.2022 88.9678 48.3916 89.5227 48.4901 90.1477ZM54.1307 98.1761C53.3125 98.1761 52.5985 97.9886 51.9886 97.6136C51.3788 97.2386 50.9053 96.714 50.5682 96.0398C50.2311 95.3655 50.0625 94.5777 50.0625 93.6761C50.0625 92.7708 50.2311 91.9792 50.5682 91.3011C50.9053 90.6231 51.3788 90.0966 51.9886 89.7216C52.5985 89.3466 53.3125 89.1591 54.1307 89.1591C54.9489 89.1591 55.6629 89.3466 56.2727 89.7216C56.8826 90.0966 57.3561 90.6231 57.6932 91.3011C58.0303 91.9792 58.1989 92.7708 58.1989 93.6761C58.1989 94.5777 58.0303 95.3655 57.6932 96.0398C57.3561 96.714 56.8826 97.2386 56.2727 97.6136C55.6629 97.9886 54.9489 98.1761 54.1307 98.1761ZM54.1364 96.75C54.6667 96.75 55.1061 96.6098 55.4545 96.3295C55.803 96.0492 56.0606 95.6761 56.2273 95.2102C56.3977 94.7443 56.483 94.2311 56.483 93.6705C56.483 93.1136 56.3977 92.6023 56.2273 92.1364C56.0606 91.6667 55.803 91.2898 55.4545 91.0057C55.1061 90.7216 54.6667 90.5795 54.1364 90.5795C53.6023 90.5795 53.1591 90.7216 52.8068 91.0057C52.4583 91.2898 52.1989 91.6667 52.0284 92.1364C51.8617 92.6023 51.7784 93.1136 51.7784 93.6705C51.7784 94.2311 51.8617 94.7443 52.0284 95.2102C52.1989 95.6761 52.4583 96.0492 52.8068 96.3295C53.1591 96.6098 53.6023 96.75 54.1364 96.75ZM60.0952 98V89.2727H61.7259V90.6932H61.8338C62.0156 90.2121 62.313 89.8371 62.7259 89.5682C63.1387 89.2955 63.633 89.1591 64.2088 89.1591C64.7921 89.1591 65.2808 89.2955 65.6747 89.5682C66.0724 89.8409 66.366 90.2159 66.5554 90.6932H66.6463C66.8546 90.2273 67.1861 89.8561 67.6406 89.5795C68.0952 89.2992 68.6368 89.1591 69.2656 89.1591C70.0573 89.1591 70.7031 89.4072 71.2031 89.9034C71.7069 90.3996 71.9588 91.1477 71.9588 92.1477V98H70.2599V92.3068C70.2599 91.7159 70.099 91.2879 69.777 91.0227C69.455 90.7576 69.0705 90.625 68.6236 90.625C68.0705 90.625 67.6406 90.7955 67.3338 91.1364C67.027 91.4735 66.8736 91.9072 66.8736 92.4375V98H65.1804V92.1989C65.1804 91.7254 65.0327 91.3447 64.7372 91.0568C64.4418 90.7689 64.0573 90.625 63.5838 90.625C63.2618 90.625 62.9645 90.7102 62.6918 90.8807C62.4228 91.0473 62.205 91.2803 62.0384 91.5795C61.8755 91.8788 61.794 92.2254 61.794 92.6193V98H60.0952ZM74.2358 101.273V89.2727H75.8949V90.6875H76.0369C76.1354 90.5057 76.2775 90.2955 76.4631 90.0568C76.6487 89.8182 76.9063 89.6098 77.2358 89.4318C77.5653 89.25 78.0009 89.1591 78.5426 89.1591C79.2472 89.1591 79.8759 89.3371 80.429 89.6932C80.982 90.0492 81.4157 90.5625 81.7301 91.233C82.0483 91.9034 82.2074 92.7102 82.2074 93.6534C82.2074 94.5966 82.0502 95.4053 81.7358 96.0795C81.4214 96.75 80.9896 97.267 80.4403 97.6307C79.8911 97.9905 79.2642 98.1705 78.5597 98.1705C78.0294 98.1705 77.5956 98.0814 77.2585 97.9034C76.9252 97.7254 76.6638 97.517 76.4744 97.2784C76.285 97.0398 76.1392 96.8277 76.0369 96.642H75.9347V101.273H74.2358ZM75.9006 93.6364C75.9006 94.25 75.9896 94.7879 76.1676 95.25C76.3456 95.7121 76.6032 96.0739 76.9403 96.3352C77.2775 96.5928 77.6903 96.7216 78.179 96.7216C78.6866 96.7216 79.1108 96.5871 79.4517 96.3182C79.7926 96.0455 80.0502 95.6761 80.2244 95.2102C80.4025 94.7443 80.4915 94.2197 80.4915 93.6364C80.4915 93.0606 80.4044 92.5436 80.2301 92.0852C80.0597 91.6269 79.8021 91.2652 79.4574 91C79.1165 90.7348 78.6903 90.6023 78.179 90.6023C77.6866 90.6023 77.2699 90.7292 76.929 90.983C76.5919 91.2367 76.3362 91.5909 76.1619 92.0455C75.9877 92.5 75.9006 93.0303 75.9006 93.6364ZM89.6392 94.3807V89.2727H91.3438V98H89.6733V96.4886H89.5824C89.3816 96.9545 89.0597 97.3428 88.6165 97.6534C88.1771 97.9602 87.6297 98.1136 86.9744 98.1136C86.4138 98.1136 85.9176 97.9905 85.4858 97.7443C85.0578 97.4943 84.7206 97.125 84.4744 96.6364C84.232 96.1477 84.1108 95.5436 84.1108 94.8239V89.2727H85.8097V94.6193C85.8097 95.214 85.9744 95.6875 86.304 96.0398C86.6335 96.392 87.0616 96.5682 87.5881 96.5682C87.9063 96.5682 88.2225 96.4886 88.5369 96.3295C88.8551 96.1705 89.1184 95.9299 89.3267 95.608C89.5388 95.286 89.643 94.8769 89.6392 94.3807ZM97.7003 89.2727V90.6364H92.9332V89.2727H97.7003ZM94.2116 87.1818H95.9105V95.4375C95.9105 95.767 95.9598 96.0152 96.0582 96.1818C96.1567 96.3447 96.2836 96.4564 96.4389 96.517C96.598 96.5739 96.7704 96.6023 96.956 96.6023C97.0923 96.6023 97.2116 96.5928 97.3139 96.5739C97.4162 96.5549 97.4957 96.5398 97.5526 96.5284L97.8594 97.9318C97.7609 97.9697 97.6207 98.0076 97.4389 98.0455C97.2571 98.0871 97.0298 98.1098 96.7571 98.1136C96.3101 98.1212 95.8935 98.0417 95.5071 97.875C95.1207 97.7083 94.8082 97.4508 94.5696 97.1023C94.331 96.7538 94.2116 96.3163 94.2116 95.7898V87.1818ZM103.247 98.1761C102.387 98.1761 101.647 97.9924 101.026 97.625C100.408 97.2538 99.9309 96.733 99.5938 96.0625C99.2604 95.3883 99.0938 94.5985 99.0938 93.6932C99.0938 92.7992 99.2604 92.0114 99.5938 91.3295C99.9309 90.6477 100.401 90.1155 101.003 89.733C101.609 89.3504 102.317 89.1591 103.128 89.1591C103.62 89.1591 104.098 89.2405 104.56 89.4034C105.022 89.5663 105.437 89.822 105.804 90.1705C106.171 90.5189 106.461 90.9716 106.673 91.5284C106.885 92.0814 106.991 92.7538 106.991 93.5455V94.1477H100.054V92.875H105.327C105.327 92.428 105.236 92.0322 105.054 91.6875C104.872 91.339 104.616 91.0644 104.287 90.8636C103.961 90.6629 103.579 90.5625 103.139 90.5625C102.662 90.5625 102.245 90.6799 101.889 90.9148C101.537 91.1458 101.264 91.4489 101.071 91.8239C100.882 92.1951 100.787 92.5985 100.787 93.0341V94.0284C100.787 94.6117 100.889 95.108 101.094 95.517C101.302 95.9261 101.592 96.2386 101.963 96.4545C102.334 96.6667 102.768 96.7727 103.264 96.7727C103.586 96.7727 103.88 96.7273 104.145 96.6364C104.41 96.5417 104.639 96.4015 104.832 96.2159C105.026 96.0303 105.173 95.8011 105.276 95.5284L106.884 95.8182C106.755 96.2917 106.524 96.7064 106.19 97.0625C105.861 97.4148 105.446 97.6894 104.946 97.8864C104.45 98.0795 103.884 98.1761 103.247 98.1761ZM108.876 98V89.2727H110.518V90.6591H110.609C110.768 90.1894 111.049 89.8201 111.45 89.5511C111.856 89.2784 112.314 89.142 112.825 89.142C112.931 89.142 113.056 89.1458 113.2 89.1534C113.348 89.161 113.464 89.1705 113.547 89.1818V90.8068C113.479 90.7879 113.357 90.767 113.183 90.7443C113.009 90.7178 112.835 90.7045 112.661 90.7045C112.259 90.7045 111.901 90.7898 111.587 90.9602C111.276 91.1269 111.03 91.3598 110.848 91.6591C110.666 91.9545 110.575 92.2917 110.575 92.6705V98H108.876ZM121.557 91.4034L120.017 91.6761C119.953 91.4792 119.85 91.2917 119.71 91.1136C119.574 90.9356 119.388 90.7898 119.153 90.6761C118.919 90.5625 118.625 90.5057 118.273 90.5057C117.792 90.5057 117.39 90.6136 117.068 90.8295C116.746 91.0417 116.585 91.3163 116.585 91.6534C116.585 91.9451 116.693 92.1799 116.909 92.358C117.125 92.536 117.473 92.6818 117.955 92.7955L119.341 93.1136C120.144 93.2992 120.742 93.5852 121.136 93.9716C121.53 94.358 121.727 94.8598 121.727 95.4773C121.727 96 121.576 96.4659 121.273 96.875C120.973 97.2803 120.555 97.5985 120.017 97.8295C119.483 98.0606 118.864 98.1761 118.159 98.1761C117.182 98.1761 116.384 97.9678 115.767 97.5511C115.15 97.1307 114.771 96.5341 114.631 95.7614L116.273 95.5114C116.375 95.9394 116.585 96.2633 116.903 96.483C117.222 96.6989 117.636 96.8068 118.148 96.8068C118.705 96.8068 119.15 96.6913 119.483 96.4602C119.816 96.2254 119.983 95.9394 119.983 95.6023C119.983 95.3295 119.881 95.1004 119.676 94.9148C119.475 94.7292 119.167 94.589 118.75 94.4943L117.273 94.1705C116.458 93.9848 115.856 93.6894 115.466 93.2841C115.08 92.8788 114.886 92.3655 114.886 91.7443C114.886 91.2292 115.03 90.7784 115.318 90.392C115.606 90.0057 116.004 89.7045 116.511 89.4886C117.019 89.2689 117.6 89.1591 118.256 89.1591C119.199 89.1591 119.941 89.3636 120.483 89.7727C121.025 90.178 121.383 90.7216 121.557 91.4034Z" fill="black"/>
<defs>
<clipPath id="clip0_2603_1933">
<rect width="48" height="48" fill="white" transform="translate(56 24)"/>
</clipPath>
</defs>
</svg>
