<svg width="160" height="128" viewBox="0 0 160 128" fill="none" xmlns="http://www.w3.org/2000/svg">
<rect width="160" height="128" rx="15" fill="#EDEDED"/>
<g clip-path="url(#clip0_2603_1930)">
<path d="M96 36H64C61.7909 36 60 37.7909 60 40V56C60 58.2091 61.7909 60 64 60H96C98.2091 60 100 58.2091 100 56V40C100 37.7909 98.2091 36 96 36Z" stroke="black" stroke-width="2" stroke-linecap="round" stroke-linejoin="round"/>
<path d="M68 48H76M72 44V52" stroke="black" stroke-width="2" stroke-linecap="round" stroke-linejoin="round"/>
<path d="M86 46V46.0207" stroke="black" stroke-width="3" stroke-linecap="round" stroke-linejoin="round"/>
<path d="M92 49.9999V50.0206" stroke="black" stroke-width="3" stroke-linecap="round" stroke-linejoin="round"/>
</g>
<path d="M59.8253 90.0398C59.7154 89.6951 59.5677 89.3864 59.3821 89.1136C59.2003 88.8371 58.9825 88.6023 58.7287 88.4091C58.4749 88.2121 58.1851 88.0625 57.8594 87.9602C57.5374 87.858 57.1832 87.8068 56.7969 87.8068C56.1416 87.8068 55.5507 87.9754 55.0241 88.3125C54.4976 88.6496 54.081 89.1439 53.7741 89.7955C53.4711 90.4432 53.3196 91.2367 53.3196 92.1761C53.3196 93.1193 53.473 93.9167 53.7798 94.5682C54.0866 95.2197 54.5071 95.714 55.0412 96.0511C55.5753 96.3883 56.1832 96.5568 56.8651 96.5568C57.4976 96.5568 58.0488 96.428 58.5185 96.1705C58.992 95.9129 59.3575 95.5492 59.6151 95.0795C59.8764 94.6061 60.0071 94.0492 60.0071 93.4091L60.4616 93.4943H57.1321V92.0455H61.706V93.3693C61.706 94.3466 61.4976 95.1951 61.081 95.9148C60.6681 96.6307 60.0961 97.1837 59.3651 97.5739C58.6378 97.964 57.8045 98.1591 56.8651 98.1591C55.812 98.1591 54.8878 97.9167 54.0923 97.4318C53.3007 96.947 52.6832 96.2595 52.2401 95.3693C51.7969 94.4754 51.5753 93.4148 51.5753 92.1875C51.5753 91.2595 51.7041 90.4261 51.9616 89.6875C52.2192 88.9489 52.581 88.322 53.0469 87.8068C53.5166 87.2879 54.0677 86.892 54.7003 86.6193C55.3366 86.3428 56.0317 86.2045 56.7855 86.2045C57.4143 86.2045 57.9995 86.2973 58.5412 86.483C59.0866 86.6686 59.5715 86.9318 59.9957 87.2727C60.4238 87.6136 60.7779 88.0189 61.0582 88.4886C61.3385 88.9545 61.5279 89.4716 61.6264 90.0398H59.8253ZM66.3381 98.1932C65.785 98.1932 65.285 98.0909 64.8381 97.8864C64.3911 97.678 64.0369 97.3769 63.7756 96.983C63.518 96.589 63.3892 96.1061 63.3892 95.5341C63.3892 95.0417 63.4839 94.6364 63.6733 94.3182C63.8627 94 64.1184 93.7481 64.4403 93.5625C64.7623 93.3769 65.1222 93.2367 65.5199 93.142C65.9176 93.0473 66.3229 92.9754 66.7358 92.9261C67.2585 92.8655 67.6828 92.8163 68.0085 92.7784C68.3343 92.7367 68.571 92.6705 68.7188 92.5795C68.8665 92.4886 68.9403 92.3409 68.9403 92.1364V92.0966C68.9403 91.6004 68.8002 91.2159 68.5199 90.9432C68.2434 90.6705 67.8305 90.5341 67.2812 90.5341C66.7093 90.5341 66.2585 90.661 65.929 90.9148C65.6032 91.1648 65.3778 91.4432 65.2528 91.75L63.6562 91.3864C63.8456 90.8561 64.1222 90.428 64.4858 90.1023C64.8532 89.7727 65.2756 89.5341 65.7528 89.3864C66.2301 89.2348 66.732 89.1591 67.2585 89.1591C67.607 89.1591 67.9763 89.2008 68.3665 89.2841C68.7604 89.3636 69.1278 89.5114 69.4688 89.7273C69.8134 89.9432 70.0956 90.2519 70.3153 90.6534C70.535 91.0511 70.6449 91.5682 70.6449 92.2045V98H68.9858V96.8068H68.9176C68.8078 97.0265 68.643 97.2424 68.4233 97.4545C68.2036 97.6667 67.9214 97.8428 67.5767 97.983C67.232 98.1231 66.8191 98.1932 66.3381 98.1932ZM66.7074 96.8295C67.1771 96.8295 67.5786 96.7367 67.9119 96.5511C68.2491 96.3655 68.5047 96.1231 68.679 95.8239C68.857 95.5208 68.946 95.197 68.946 94.8523V93.7273C68.8854 93.7879 68.768 93.8447 68.5938 93.8977C68.4233 93.947 68.2282 93.9905 68.0085 94.0284C67.7888 94.0625 67.5748 94.0947 67.3665 94.125C67.1581 94.1515 66.9839 94.1742 66.8438 94.1932C66.5142 94.2348 66.2131 94.3049 65.9403 94.4034C65.6714 94.5019 65.4555 94.6439 65.2926 94.8295C65.1335 95.0114 65.054 95.2538 65.054 95.5568C65.054 95.9773 65.2093 96.2955 65.5199 96.5114C65.8305 96.7235 66.2263 96.8295 66.7074 96.8295ZM72.9077 98V89.2727H74.5384V90.6932H74.6463C74.8281 90.2121 75.1255 89.8371 75.5384 89.5682C75.9512 89.2955 76.4455 89.1591 77.0213 89.1591C77.6046 89.1591 78.0933 89.2955 78.4872 89.5682C78.8849 89.8409 79.1785 90.2159 79.3679 90.6932H79.4588C79.6671 90.2273 79.9986 89.8561 80.4531 89.5795C80.9077 89.2992 81.4493 89.1591 82.0781 89.1591C82.8698 89.1591 83.5156 89.4072 84.0156 89.9034C84.5194 90.3996 84.7713 91.1477 84.7713 92.1477V98H83.0724V92.3068C83.0724 91.7159 82.9115 91.2879 82.5895 91.0227C82.2675 90.7576 81.883 90.625 81.4361 90.625C80.883 90.625 80.4531 90.7955 80.1463 91.1364C79.8395 91.4735 79.6861 91.9072 79.6861 92.4375V98H77.9929V92.1989C77.9929 91.7254 77.8452 91.3447 77.5497 91.0568C77.2543 90.7689 76.8698 90.625 76.3963 90.625C76.0743 90.625 75.777 90.7102 75.5043 90.8807C75.2353 91.0473 75.0175 91.2803 74.8509 91.5795C74.688 91.8788 74.6065 92.2254 74.6065 92.6193V98H72.9077ZM87.0483 98V89.2727H88.7472V98H87.0483ZM87.9062 87.9261C87.6108 87.9261 87.357 87.8277 87.1449 87.6307C86.9366 87.4299 86.8324 87.1913 86.8324 86.9148C86.8324 86.6345 86.9366 86.3958 87.1449 86.1989C87.357 85.9981 87.6108 85.8977 87.9062 85.8977C88.2017 85.8977 88.4536 85.9981 88.6619 86.1989C88.8741 86.3958 88.9801 86.6345 88.9801 86.9148C88.9801 87.1913 88.8741 87.4299 88.6619 87.6307C88.4536 87.8277 88.2017 87.9261 87.9062 87.9261ZM92.7315 92.8182V98H91.0327V89.2727H92.6634V90.6932H92.7713C92.9721 90.2311 93.2865 89.8598 93.7145 89.5795C94.1463 89.2992 94.6899 89.1591 95.3452 89.1591C95.9399 89.1591 96.4607 89.2841 96.9077 89.5341C97.3546 89.7803 97.7012 90.1477 97.9474 90.6364C98.1937 91.125 98.3168 91.7292 98.3168 92.4489V98H96.6179V92.6534C96.6179 92.0208 96.4531 91.5265 96.1236 91.1705C95.794 90.8106 95.3414 90.6307 94.7656 90.6307C94.3717 90.6307 94.0213 90.7159 93.7145 90.8864C93.4115 91.0568 93.1709 91.3068 92.9929 91.6364C92.8187 91.9621 92.7315 92.3561 92.7315 92.8182ZM104.254 101.455C103.561 101.455 102.964 101.364 102.464 101.182C101.968 101 101.563 100.759 101.249 100.46C100.934 100.161 100.699 99.8333 100.544 99.4773L102.004 98.875C102.107 99.0417 102.243 99.2178 102.413 99.4034C102.588 99.5928 102.822 99.7538 103.118 99.8864C103.417 100.019 103.802 100.085 104.271 100.085C104.915 100.085 105.447 99.928 105.868 99.6136C106.288 99.303 106.499 98.8068 106.499 98.125V96.4091H106.391C106.288 96.5947 106.141 96.8011 105.947 97.0284C105.758 97.2557 105.497 97.4527 105.163 97.6193C104.83 97.786 104.396 97.8693 103.862 97.8693C103.173 97.8693 102.552 97.7083 101.999 97.3864C101.449 97.0606 101.014 96.5814 100.692 95.9489C100.374 95.3125 100.214 94.5303 100.214 93.6023C100.214 92.6742 100.372 91.8788 100.686 91.2159C101.004 90.553 101.44 90.0455 101.993 89.6932C102.546 89.3371 103.173 89.1591 103.874 89.1591C104.415 89.1591 104.853 89.25 105.186 89.4318C105.519 89.6098 105.779 89.8182 105.964 90.0568C106.154 90.2955 106.3 90.5057 106.402 90.6875H106.527V89.2727H108.192V98.1932C108.192 98.9432 108.018 99.5587 107.669 100.04C107.321 100.521 106.849 100.877 106.254 101.108C105.663 101.339 104.997 101.455 104.254 101.455ZM104.237 96.4602C104.726 96.4602 105.139 96.3466 105.476 96.1193C105.817 95.8883 106.074 95.5587 106.249 95.1307C106.427 94.6989 106.516 94.1818 106.516 93.5795C106.516 92.9924 106.429 92.4754 106.254 92.0284C106.08 91.5814 105.824 91.233 105.487 90.983C105.15 90.7292 104.733 90.6023 104.237 90.6023C103.726 90.6023 103.3 90.7348 102.959 91C102.618 91.2614 102.36 91.6174 102.186 92.0682C102.016 92.5189 101.93 93.0227 101.93 93.5795C101.93 94.1515 102.018 94.6534 102.192 95.0852C102.366 95.517 102.624 95.8542 102.964 96.0966C103.309 96.339 103.733 96.4602 104.237 96.4602Z" fill="black"/>
<defs>
<clipPath id="clip0_2603_1930">
<rect width="48" height="48" fill="white" transform="translate(56 24)"/>
</clipPath>
</defs>
</svg>
