<svg width="160" height="128" viewBox="0 0 160 128" fill="none" xmlns="http://www.w3.org/2000/svg">
<rect width="160" height="128" rx="15" fill="#EDEDED"/>
<g clip-path="url(#clip0_2603_1942)">
<path d="M70 50H68C65.7909 50 64 51.7909 64 54V60C64 62.2091 65.7909 64 68 64H70C72.2091 64 74 62.2091 74 60V54C74 51.7909 72.2091 50 70 50Z" stroke="black" stroke-width="2" stroke-linecap="round" stroke-linejoin="round"/>
<path d="M92 50H90C87.7909 50 86 51.7909 86 54V60C86 62.2091 87.7909 64 90 64H92C94.2091 64 96 62.2091 96 60V54C96 51.7909 94.2091 50 92 50Z" stroke="black" stroke-width="2" stroke-linecap="round" stroke-linejoin="round"/>
<path d="M64 54V48C64 43.7565 65.6857 39.6869 68.6863 36.6863C71.6869 33.6857 75.7565 32 80 32C84.2435 32 88.3131 33.6857 91.3137 36.6863C94.3143 39.6869 96 43.7565 96 48V54" stroke="black" stroke-width="2" stroke-linecap="round" stroke-linejoin="round"/>
</g>
<path d="M32.7472 98V86.3636H34.5028V91.4205H40.304V86.3636H42.0653V98H40.304V92.9261H34.5028V98H32.7472ZM48.2472 98.1761C47.3873 98.1761 46.6468 97.9924 46.0256 97.625C45.4081 97.2538 44.9309 96.733 44.5938 96.0625C44.2604 95.3883 44.0938 94.5985 44.0938 93.6932C44.0938 92.7992 44.2604 92.0114 44.5938 91.3295C44.9309 90.6477 45.4006 90.1155 46.0028 89.733C46.6089 89.3504 47.3172 89.1591 48.1278 89.1591C48.6203 89.1591 49.0975 89.2405 49.5597 89.4034C50.0218 89.5663 50.4366 89.822 50.804 90.1705C51.1714 90.5189 51.4612 90.9716 51.6733 91.5284C51.8854 92.0814 51.9915 92.7538 51.9915 93.5455V94.1477H45.054V92.875H50.3267C50.3267 92.428 50.2358 92.0322 50.054 91.6875C49.8722 91.339 49.6165 91.0644 49.2869 90.8636C48.9612 90.6629 48.5786 90.5625 48.1392 90.5625C47.6619 90.5625 47.2453 90.6799 46.8892 90.9148C46.5369 91.1458 46.2642 91.4489 46.071 91.8239C45.8816 92.1951 45.7869 92.5985 45.7869 93.0341V94.0284C45.7869 94.6117 45.8892 95.108 46.0938 95.517C46.3021 95.9261 46.5919 96.2386 46.9631 96.4545C47.3343 96.6667 47.768 96.7727 48.2642 96.7727C48.5862 96.7727 48.8797 96.7273 49.1449 96.6364C49.41 96.5417 49.6392 96.4015 49.8324 96.2159C50.0256 96.0303 50.1733 95.8011 50.2756 95.5284L51.8835 95.8182C51.7547 96.2917 51.5237 96.7064 51.1903 97.0625C50.8608 97.4148 50.446 97.6894 49.946 97.8864C49.4498 98.0795 48.8835 98.1761 48.2472 98.1761ZM56.4162 98.1932C55.8632 98.1932 55.3632 98.0909 54.9162 97.8864C54.4692 97.678 54.1151 97.3769 53.8537 96.983C53.5961 96.589 53.4673 96.1061 53.4673 95.5341C53.4673 95.0417 53.562 94.6364 53.7514 94.3182C53.9408 94 54.1965 93.7481 54.5185 93.5625C54.8404 93.3769 55.2003 93.2367 55.598 93.142C55.9957 93.0473 56.401 92.9754 56.8139 92.9261C57.3366 92.8655 57.7609 92.8163 58.0866 92.7784C58.4124 92.7367 58.6491 92.6705 58.7969 92.5795C58.9446 92.4886 59.0185 92.3409 59.0185 92.1364V92.0966C59.0185 91.6004 58.8783 91.2159 58.598 90.9432C58.3215 90.6705 57.9086 90.5341 57.3594 90.5341C56.7874 90.5341 56.3366 90.661 56.0071 90.9148C55.6813 91.1648 55.456 91.4432 55.331 91.75L53.7344 91.3864C53.9238 90.8561 54.2003 90.428 54.5639 90.1023C54.9313 89.7727 55.3537 89.5341 55.831 89.3864C56.3082 89.2348 56.8101 89.1591 57.3366 89.1591C57.6851 89.1591 58.0545 89.2008 58.4446 89.2841C58.8385 89.3636 59.206 89.5114 59.5469 89.7273C59.8916 89.9432 60.1738 90.2519 60.3935 90.6534C60.6132 91.0511 60.723 91.5682 60.723 92.2045V98H59.0639V96.8068H58.9957C58.8859 97.0265 58.7211 97.2424 58.5014 97.4545C58.2817 97.6667 57.9995 97.8428 57.6548 97.983C57.3101 98.1231 56.8973 98.1932 56.4162 98.1932ZM56.7855 96.8295C57.2552 96.8295 57.6567 96.7367 57.9901 96.5511C58.3272 96.3655 58.5829 96.1231 58.7571 95.8239C58.9351 95.5208 59.0241 95.197 59.0241 94.8523V93.7273C58.9635 93.7879 58.8461 93.8447 58.6719 93.8977C58.5014 93.947 58.3063 93.9905 58.0866 94.0284C57.867 94.0625 57.6529 94.0947 57.4446 94.125C57.2363 94.1515 57.062 94.1742 56.9219 94.1932C56.5923 94.2348 56.2912 94.3049 56.0185 94.4034C55.7495 94.5019 55.5336 94.6439 55.3707 94.8295C55.2116 95.0114 55.1321 95.2538 55.1321 95.5568C55.1321 95.9773 55.2874 96.2955 55.598 96.5114C55.9086 96.7235 56.3045 96.8295 56.7855 96.8295ZM66.2528 98.1705C65.5483 98.1705 64.9195 97.9905 64.3665 97.6307C63.8172 97.267 63.3854 96.75 63.071 96.0795C62.7604 95.4053 62.6051 94.5966 62.6051 93.6534C62.6051 92.7102 62.7623 91.9034 63.0767 91.233C63.3949 90.5625 63.8305 90.0492 64.3835 89.6932C64.9366 89.3371 65.5634 89.1591 66.2642 89.1591C66.8059 89.1591 67.2415 89.25 67.571 89.4318C67.9044 89.6098 68.1619 89.8182 68.3438 90.0568C68.5294 90.2955 68.6733 90.5057 68.7756 90.6875H68.8778V86.3636H70.5767V98H68.9176V96.642H68.7756C68.6733 96.8277 68.5256 97.0398 68.3324 97.2784C68.143 97.517 67.8816 97.7254 67.5483 97.9034C67.215 98.0814 66.7831 98.1705 66.2528 98.1705ZM66.6278 96.7216C67.1165 96.7216 67.5294 96.5928 67.8665 96.3352C68.2074 96.0739 68.465 95.7121 68.6392 95.25C68.8172 94.7879 68.9062 94.25 68.9062 93.6364C68.9062 93.0303 68.8191 92.5 68.6449 92.0455C68.4706 91.5909 68.215 91.2367 67.8778 90.983C67.5407 90.7292 67.1241 90.6023 66.6278 90.6023C66.1165 90.6023 65.6903 90.7348 65.3494 91C65.0085 91.2652 64.7509 91.6269 64.5767 92.0852C64.4063 92.5436 64.321 93.0606 64.321 93.6364C64.321 94.2197 64.4081 94.7443 64.5824 95.2102C64.7566 95.6761 65.0142 96.0455 65.3551 96.3182C65.6998 96.5871 66.1241 96.7216 66.6278 96.7216ZM73.0014 101.273V89.2727H74.6605V90.6875H74.8026C74.901 90.5057 75.0431 90.2955 75.2287 90.0568C75.4143 89.8182 75.6719 89.6098 76.0014 89.4318C76.331 89.25 76.7666 89.1591 77.3082 89.1591C78.0128 89.1591 78.6416 89.3371 79.1946 89.6932C79.7476 90.0492 80.1813 90.5625 80.4957 91.233C80.8139 91.9034 80.973 92.7102 80.973 93.6534C80.973 94.5966 80.8158 95.4053 80.5014 96.0795C80.187 96.75 79.7552 97.267 79.206 97.6307C78.6567 97.9905 78.0298 98.1705 77.3253 98.1705C76.795 98.1705 76.3613 98.0814 76.0241 97.9034C75.6908 97.7254 75.4295 97.517 75.2401 97.2784C75.0507 97.0398 74.9048 96.8277 74.8026 96.642H74.7003V101.273H73.0014ZM74.6662 93.6364C74.6662 94.25 74.7552 94.7879 74.9332 95.25C75.1113 95.7121 75.3688 96.0739 75.706 96.3352C76.0431 96.5928 76.456 96.7216 76.9446 96.7216C77.4522 96.7216 77.8764 96.5871 78.2173 96.3182C78.5582 96.0455 78.8158 95.6761 78.9901 95.2102C79.1681 94.7443 79.2571 94.2197 79.2571 93.6364C79.2571 93.0606 79.17 92.5436 78.9957 92.0852C78.8253 91.6269 78.5677 91.2652 78.223 91C77.8821 90.7348 77.456 90.6023 76.9446 90.6023C76.4522 90.6023 76.0355 90.7292 75.6946 90.983C75.3575 91.2367 75.1018 91.5909 74.9276 92.0455C74.7533 92.5 74.6662 93.0303 74.6662 93.6364ZM84.5753 92.8182V98H82.8764V86.3636H84.5526V90.6932H84.6605C84.8651 90.2235 85.1776 89.8504 85.598 89.5739C86.0185 89.2973 86.5677 89.1591 87.2457 89.1591C87.8442 89.1591 88.367 89.2822 88.8139 89.5284C89.2647 89.7746 89.6132 90.142 89.8594 90.6307C90.1094 91.1155 90.2344 91.7216 90.2344 92.4489V98H88.5355V92.6534C88.5355 92.0133 88.3707 91.517 88.0412 91.1648C87.7116 90.8087 87.2533 90.6307 86.6662 90.6307C86.2647 90.6307 85.9048 90.7159 85.5866 90.8864C85.2723 91.0568 85.0241 91.3068 84.8423 91.6364C84.6643 91.9621 84.5753 92.3561 84.5753 92.8182ZM96.1776 98.1761C95.3594 98.1761 94.6454 97.9886 94.0355 97.6136C93.4257 97.2386 92.9522 96.714 92.6151 96.0398C92.2779 95.3655 92.1094 94.5777 92.1094 93.6761C92.1094 92.7708 92.2779 91.9792 92.6151 91.3011C92.9522 90.6231 93.4257 90.0966 94.0355 89.7216C94.6454 89.3466 95.3594 89.1591 96.1776 89.1591C96.9957 89.1591 97.7098 89.3466 98.3196 89.7216C98.9295 90.0966 99.4029 90.6231 99.7401 91.3011C100.077 91.9792 100.246 92.7708 100.246 93.6761C100.246 94.5777 100.077 95.3655 99.7401 96.0398C99.4029 96.714 98.9295 97.2386 98.3196 97.6136C97.7098 97.9886 96.9957 98.1761 96.1776 98.1761ZM96.1832 96.75C96.7135 96.75 97.1529 96.6098 97.5014 96.3295C97.8499 96.0492 98.1075 95.6761 98.2741 95.2102C98.4446 94.7443 98.5298 94.2311 98.5298 93.6705C98.5298 93.1136 98.4446 92.6023 98.2741 92.1364C98.1075 91.6667 97.8499 91.2898 97.5014 91.0057C97.1529 90.7216 96.7135 90.5795 96.1832 90.5795C95.6491 90.5795 95.206 90.7216 94.8537 91.0057C94.5052 91.2898 94.2457 91.6667 94.0753 92.1364C93.9086 92.6023 93.8253 93.1136 93.8253 93.6705C93.8253 94.2311 93.9086 94.7443 94.0753 95.2102C94.2457 95.6761 94.5052 96.0492 94.8537 96.3295C95.206 96.6098 95.6491 96.75 96.1832 96.75ZM103.841 92.8182V98H102.142V89.2727H103.773V90.6932H103.881C104.081 90.2311 104.396 89.8598 104.824 89.5795C105.256 89.2992 105.799 89.1591 106.455 89.1591C107.049 89.1591 107.57 89.2841 108.017 89.5341C108.464 89.7803 108.811 90.1477 109.057 90.6364C109.303 91.125 109.426 91.7292 109.426 92.4489V98H107.727V92.6534C107.727 92.0208 107.563 91.5265 107.233 91.1705C106.903 90.8106 106.451 90.6307 105.875 90.6307C105.481 90.6307 105.131 90.7159 104.824 90.8864C104.521 91.0568 104.28 91.3068 104.102 91.6364C103.928 91.9621 103.841 92.3561 103.841 92.8182ZM115.466 98.1761C114.606 98.1761 113.866 97.9924 113.244 97.625C112.627 97.2538 112.15 96.733 111.812 96.0625C111.479 95.3883 111.312 94.5985 111.312 93.6932C111.312 92.7992 111.479 92.0114 111.812 91.3295C112.15 90.6477 112.619 90.1155 113.222 89.733C113.828 89.3504 114.536 89.1591 115.347 89.1591C115.839 89.1591 116.316 89.2405 116.778 89.4034C117.241 89.5663 117.655 89.822 118.023 90.1705C118.39 90.5189 118.68 90.9716 118.892 91.5284C119.104 92.0814 119.21 92.7538 119.21 93.5455V94.1477H112.273V92.875H117.545C117.545 92.428 117.455 92.0322 117.273 91.6875C117.091 91.339 116.835 91.0644 116.506 90.8636C116.18 90.6629 115.797 90.5625 115.358 90.5625C114.881 90.5625 114.464 90.6799 114.108 90.9148C113.756 91.1458 113.483 91.4489 113.29 91.8239C113.1 92.1951 113.006 92.5985 113.006 93.0341V94.0284C113.006 94.6117 113.108 95.108 113.312 95.517C113.521 95.9261 113.811 96.2386 114.182 96.4545C114.553 96.6667 114.987 96.7727 115.483 96.7727C115.805 96.7727 116.098 96.7273 116.364 96.6364C116.629 96.5417 116.858 96.4015 117.051 96.2159C117.244 96.0303 117.392 95.8011 117.494 95.5284L119.102 95.8182C118.973 96.2917 118.742 96.7064 118.409 97.0625C118.08 97.4148 117.665 97.6894 117.165 97.8864C116.669 98.0795 116.102 98.1761 115.466 98.1761ZM127.635 91.4034L126.095 91.6761C126.031 91.4792 125.929 91.2917 125.788 91.1136C125.652 90.9356 125.466 90.7898 125.232 90.6761C124.997 90.5625 124.703 90.5057 124.351 90.5057C123.87 90.5057 123.468 90.6136 123.146 90.8295C122.824 91.0417 122.663 91.3163 122.663 91.6534C122.663 91.9451 122.771 92.1799 122.987 92.358C123.203 92.536 123.552 92.6818 124.033 92.7955L125.419 93.1136C126.222 93.2992 126.821 93.5852 127.214 93.9716C127.608 94.358 127.805 94.8598 127.805 95.4773C127.805 96 127.654 96.4659 127.351 96.875C127.052 97.2803 126.633 97.5985 126.095 97.8295C125.561 98.0606 124.942 98.1761 124.237 98.1761C123.26 98.1761 122.463 97.9678 121.845 97.5511C121.228 97.1307 120.849 96.5341 120.709 95.7614L122.351 95.5114C122.453 95.9394 122.663 96.2633 122.982 96.483C123.3 96.6989 123.714 96.8068 124.226 96.8068C124.783 96.8068 125.228 96.6913 125.561 96.4602C125.894 96.2254 126.061 95.9394 126.061 95.6023C126.061 95.3295 125.959 95.1004 125.754 94.9148C125.554 94.7292 125.245 94.589 124.828 94.4943L123.351 94.1705C122.536 93.9848 121.934 93.6894 121.544 93.2841C121.158 92.8788 120.964 92.3655 120.964 91.7443C120.964 91.2292 121.108 90.7784 121.396 90.392C121.684 90.0057 122.082 89.7045 122.589 89.4886C123.097 89.2689 123.679 89.1591 124.334 89.1591C125.277 89.1591 126.019 89.3636 126.561 89.7727C127.103 90.178 127.461 90.7216 127.635 91.4034Z" fill="black"/>
<defs>
<clipPath id="clip0_2603_1942">
<rect width="48" height="48" fill="white" transform="translate(56 24)"/>
</clipPath>
</defs>
</svg>
