<svg width="160" height="128" viewBox="0 0 160 128" fill="none" xmlns="http://www.w3.org/2000/svg">
<rect width="160" height="128" rx="15" fill="#EDEDED"/>
<g clip-path="url(#clip0_2603_1945)">
<path d="M89.375 29.25H70.625C69.3306 29.25 68.2812 30.2993 68.2812 31.5938V64.4062C68.2812 65.7007 69.3306 66.75 70.625 66.75H89.375C90.6694 66.75 91.7188 65.7007 91.7188 64.4062V31.5938C91.7188 30.2993 90.6694 29.25 89.375 29.25Z" stroke="black" stroke-width="2" stroke-linecap="round" stroke-linejoin="round"/>
<path d="M78 30H82.6875" stroke="black" stroke-width="3" stroke-linecap="round" stroke-linejoin="round"/>
<path d="M80 61.7188V61.7404" stroke="black" stroke-width="2.5" stroke-linecap="round" stroke-linejoin="round"/>
<line x1="69" y1="58" x2="91" y2="58" stroke="black" stroke-width="2"/>
</g>
<path d="M52.7628 98V86.3636H56.9105C57.8158 86.3636 58.5658 86.5284 59.1605 86.858C59.7552 87.1875 60.2003 87.6383 60.4957 88.2102C60.7912 88.7784 60.9389 89.4186 60.9389 90.1307C60.9389 90.8466 60.7893 91.4905 60.4901 92.0625C60.1946 92.6307 59.7476 93.0814 59.1491 93.4148C58.5545 93.7443 57.8063 93.9091 56.9048 93.9091H54.0526V92.4205H56.7457C57.3177 92.4205 57.7817 92.322 58.1378 92.125C58.4938 91.9242 58.7552 91.6515 58.9219 91.3068C59.0885 90.9621 59.1719 90.5701 59.1719 90.1307C59.1719 89.6913 59.0885 89.3011 58.9219 88.9602C58.7552 88.6193 58.492 88.3523 58.1321 88.1591C57.776 87.9659 57.3063 87.8693 56.723 87.8693H54.5185V98H52.7628ZM64.5597 92.8182V98H62.8608V86.3636H64.5369V90.6932H64.6449C64.8494 90.2235 65.1619 89.8504 65.5824 89.5739C66.0028 89.2973 66.5521 89.1591 67.2301 89.1591C67.8286 89.1591 68.3513 89.2822 68.7983 89.5284C69.2491 89.7746 69.5975 90.142 69.8438 90.6307C70.0938 91.1155 70.2188 91.7216 70.2188 92.4489V98H68.5199V92.6534C68.5199 92.0133 68.3551 91.517 68.0256 91.1648C67.696 90.8087 67.2377 90.6307 66.6506 90.6307C66.2491 90.6307 65.8892 90.7159 65.571 90.8864C65.2566 91.0568 65.0085 91.3068 64.8267 91.6364C64.6487 91.9621 64.5597 92.3561 64.5597 92.8182ZM76.1619 98.1761C75.3438 98.1761 74.6297 97.9886 74.0199 97.6136C73.41 97.2386 72.9366 96.714 72.5994 96.0398C72.2623 95.3655 72.0938 94.5777 72.0938 93.6761C72.0938 92.7708 72.2623 91.9792 72.5994 91.3011C72.9366 90.6231 73.41 90.0966 74.0199 89.7216C74.6297 89.3466 75.3438 89.1591 76.1619 89.1591C76.9801 89.1591 77.6941 89.3466 78.304 89.7216C78.9138 90.0966 79.3873 90.6231 79.7244 91.3011C80.0616 91.9792 80.2301 92.7708 80.2301 93.6761C80.2301 94.5777 80.0616 95.3655 79.7244 96.0398C79.3873 96.714 78.9138 97.2386 78.304 97.6136C77.6941 97.9886 76.9801 98.1761 76.1619 98.1761ZM76.1676 96.75C76.6979 96.75 77.1373 96.6098 77.4858 96.3295C77.8343 96.0492 78.0919 95.6761 78.2585 95.2102C78.429 94.7443 78.5142 94.2311 78.5142 93.6705C78.5142 93.1136 78.429 92.6023 78.2585 92.1364C78.0919 91.6667 77.8343 91.2898 77.4858 91.0057C77.1373 90.7216 76.6979 90.5795 76.1676 90.5795C75.6335 90.5795 75.1903 90.7216 74.8381 91.0057C74.4896 91.2898 74.2301 91.6667 74.0597 92.1364C73.893 92.6023 73.8097 93.1136 73.8097 93.6705C73.8097 94.2311 73.893 94.7443 74.0597 95.2102C74.2301 95.6761 74.4896 96.0492 74.8381 96.3295C75.1903 96.6098 75.6335 96.75 76.1676 96.75ZM83.8253 92.8182V98H82.1264V89.2727H83.7571V90.6932H83.8651C84.0658 90.2311 84.3802 89.8598 84.8082 89.5795C85.2401 89.2992 85.7836 89.1591 86.4389 89.1591C87.0336 89.1591 87.5545 89.2841 88.0014 89.5341C88.4484 89.7803 88.795 90.1477 89.0412 90.6364C89.2874 91.125 89.4105 91.7292 89.4105 92.4489V98H87.7116V92.6534C87.7116 92.0208 87.5469 91.5265 87.2173 91.1705C86.8878 90.8106 86.4351 90.6307 85.8594 90.6307C85.4654 90.6307 85.1151 90.7159 84.8082 90.8864C84.5052 91.0568 84.2647 91.3068 84.0866 91.6364C83.9124 91.9621 83.8253 92.3561 83.8253 92.8182ZM95.4503 98.1761C94.5904 98.1761 93.8499 97.9924 93.2287 97.625C92.6113 97.2538 92.134 96.733 91.7969 96.0625C91.4635 95.3883 91.2969 94.5985 91.2969 93.6932C91.2969 92.7992 91.4635 92.0114 91.7969 91.3295C92.134 90.6477 92.6037 90.1155 93.206 89.733C93.812 89.3504 94.5204 89.1591 95.331 89.1591C95.8234 89.1591 96.3007 89.2405 96.7628 89.4034C97.2249 89.5663 97.6397 89.822 98.0071 90.1705C98.3745 90.5189 98.6643 90.9716 98.8764 91.5284C99.0885 92.0814 99.1946 92.7538 99.1946 93.5455V94.1477H92.2571V92.875H97.5298C97.5298 92.428 97.4389 92.0322 97.2571 91.6875C97.0753 91.339 96.8196 91.0644 96.4901 90.8636C96.1643 90.6629 95.7817 90.5625 95.3423 90.5625C94.8651 90.5625 94.4484 90.6799 94.0923 90.9148C93.7401 91.1458 93.4673 91.4489 93.2741 91.8239C93.0848 92.1951 92.9901 92.5985 92.9901 93.0341V94.0284C92.9901 94.6117 93.0923 95.108 93.2969 95.517C93.5052 95.9261 93.795 96.2386 94.1662 96.4545C94.5374 96.6667 94.9711 96.7727 95.4673 96.7727C95.7893 96.7727 96.0829 96.7273 96.348 96.6364C96.6132 96.5417 96.8423 96.4015 97.0355 96.2159C97.2287 96.0303 97.3764 95.8011 97.4787 95.5284L99.0866 95.8182C98.9579 96.2917 98.7268 96.7064 98.3935 97.0625C98.0639 97.4148 97.6491 97.6894 97.1491 97.8864C96.6529 98.0795 96.0866 98.1761 95.4503 98.1761ZM107.619 91.4034L106.08 91.6761C106.015 91.4792 105.913 91.2917 105.773 91.1136C105.636 90.9356 105.451 90.7898 105.216 90.6761C104.981 90.5625 104.688 90.5057 104.335 90.5057C103.854 90.5057 103.453 90.6136 103.131 90.8295C102.809 91.0417 102.648 91.3163 102.648 91.6534C102.648 91.9451 102.756 92.1799 102.972 92.358C103.188 92.536 103.536 92.6818 104.017 92.7955L105.403 93.1136C106.206 93.2992 106.805 93.5852 107.199 93.9716C107.593 94.358 107.79 94.8598 107.79 95.4773C107.79 96 107.638 96.4659 107.335 96.875C107.036 97.2803 106.617 97.5985 106.08 97.8295C105.545 98.0606 104.926 98.1761 104.222 98.1761C103.244 98.1761 102.447 97.9678 101.83 97.5511C101.212 97.1307 100.833 96.5341 100.693 95.7614L102.335 95.5114C102.438 95.9394 102.648 96.2633 102.966 96.483C103.284 96.6989 103.699 96.8068 104.21 96.8068C104.767 96.8068 105.212 96.6913 105.545 96.4602C105.879 96.2254 106.045 95.9394 106.045 95.6023C106.045 95.3295 105.943 95.1004 105.739 94.9148C105.538 94.7292 105.229 94.589 104.812 94.4943L103.335 94.1705C102.521 93.9848 101.919 93.6894 101.528 93.2841C101.142 92.8788 100.949 92.3655 100.949 91.7443C100.949 91.2292 101.093 90.7784 101.381 90.392C101.669 90.0057 102.066 89.7045 102.574 89.4886C103.081 89.2689 103.663 89.1591 104.318 89.1591C105.261 89.1591 106.004 89.3636 106.545 89.7727C107.087 90.178 107.445 90.7216 107.619 91.4034Z" fill="black"/>
<defs>
<clipPath id="clip0_2603_1945">
<rect width="48" height="48" fill="white" transform="translate(56 24)"/>
</clipPath>
</defs>
</svg>
