<svg width="160" height="128" viewBox="0 0 160 128" fill="none" xmlns="http://www.w3.org/2000/svg">
<rect width="160" height="128" rx="15" fill="#EDEDED"/>
<g clip-path="url(#clip0_2603_1939)">
<path d="M86 36H74C70.6863 36 68 38.6863 68 42V54C68 57.3137 70.6863 60 74 60H86C89.3137 60 92 57.3137 92 54V42C92 38.6863 89.3137 36 86 36Z" stroke="black" stroke-width="2" stroke-linecap="round" stroke-linejoin="round"/>
<path d="M74 60V66H86V60" stroke="black" stroke-width="2" stroke-linecap="round" stroke-linejoin="round"/>
<path d="M74 36V30H86V36" stroke="black" stroke-width="2" stroke-linecap="round" stroke-linejoin="round"/>
<line x1="76.7144" y1="42" x2="76.7144" y2="53" stroke="black" stroke-width="2" stroke-linecap="round"/>
<line x1="80.7144" y1="47" x2="80.7144" y2="53" stroke="black" stroke-width="2" stroke-linecap="round"/>
<line x1="84.7144" y1="45" x2="84.7144" y2="53" stroke="black" stroke-width="2" stroke-linecap="round"/>
</g>
<path d="M29.2188 89.4205C29.1581 88.8826 28.9081 88.4659 28.4688 88.1705C28.0294 87.8712 27.4763 87.7216 26.8097 87.7216C26.3324 87.7216 25.9195 87.7973 25.571 87.9489C25.2225 88.0966 24.9517 88.3011 24.7585 88.5625C24.5691 88.8201 24.4744 89.1136 24.4744 89.4432C24.4744 89.7197 24.5388 89.9583 24.6676 90.1591C24.8002 90.3598 24.9725 90.5284 25.1847 90.6648C25.4006 90.7973 25.6316 90.9091 25.8778 91C26.1241 91.0871 26.3608 91.1591 26.5881 91.2159L27.7244 91.5114C28.0956 91.6023 28.4763 91.7254 28.8665 91.8807C29.2566 92.036 29.6184 92.2405 29.9517 92.4943C30.285 92.7481 30.554 93.0625 30.7585 93.4375C30.9669 93.8125 31.071 94.2614 31.071 94.7841C31.071 95.4432 30.9006 96.0284 30.5597 96.5398C30.2225 97.0511 29.732 97.4545 29.0881 97.75C28.4479 98.0455 27.6733 98.1932 26.7642 98.1932C25.893 98.1932 25.1392 98.0549 24.5028 97.7784C23.8665 97.5019 23.3684 97.1098 23.0085 96.6023C22.6487 96.0909 22.4498 95.4848 22.4119 94.7841H24.1733C24.2074 95.2045 24.3438 95.5549 24.5824 95.8352C24.8248 96.1117 25.1335 96.3182 25.5085 96.4545C25.8873 96.5871 26.3021 96.6534 26.7528 96.6534C27.2491 96.6534 27.6903 96.5758 28.0767 96.4205C28.4669 96.2614 28.7737 96.0417 28.9972 95.7614C29.2206 95.4773 29.3324 95.1458 29.3324 94.767C29.3324 94.4223 29.2339 94.1402 29.0369 93.9205C28.8438 93.7008 28.5805 93.5189 28.2472 93.375C27.9176 93.2311 27.5445 93.1042 27.1278 92.9943L25.7528 92.6193C24.821 92.3655 24.0824 91.9924 23.5369 91.5C22.9953 91.0076 22.7244 90.3561 22.7244 89.5455C22.7244 88.875 22.9063 88.2898 23.2699 87.7898C23.6335 87.2898 24.1259 86.9015 24.7472 86.625C25.3684 86.3447 26.0691 86.2045 26.8494 86.2045C27.6373 86.2045 28.3324 86.3428 28.9347 86.6193C29.5407 86.8958 30.018 87.2765 30.3665 87.7614C30.715 88.2424 30.8968 88.7955 30.9119 89.4205H29.2188ZM33.0327 98V89.2727H34.6634V90.6932H34.7713C34.9531 90.2121 35.2505 89.8371 35.6634 89.5682C36.0762 89.2955 36.5705 89.1591 37.1463 89.1591C37.7296 89.1591 38.2183 89.2955 38.6122 89.5682C39.0099 89.8409 39.3035 90.2159 39.4929 90.6932H39.5838C39.7921 90.2273 40.1236 89.8561 40.5781 89.5795C41.0327 89.2992 41.5743 89.1591 42.2031 89.1591C42.9948 89.1591 43.6406 89.4072 44.1406 89.9034C44.6444 90.3996 44.8963 91.1477 44.8963 92.1477V98H43.1974V92.3068C43.1974 91.7159 43.0365 91.2879 42.7145 91.0227C42.3925 90.7576 42.008 90.625 41.5611 90.625C41.008 90.625 40.5781 90.7955 40.2713 91.1364C39.9645 91.4735 39.8111 91.9072 39.8111 92.4375V98H38.1179V92.1989C38.1179 91.7254 37.9702 91.3447 37.6747 91.0568C37.3793 90.7689 36.9948 90.625 36.5213 90.625C36.1993 90.625 35.902 90.7102 35.6293 90.8807C35.3603 91.0473 35.1425 91.2803 34.9759 91.5795C34.813 91.8788 34.7315 92.2254 34.7315 92.6193V98H33.0327ZM49.7131 98.1932C49.16 98.1932 48.66 98.0909 48.2131 97.8864C47.7661 97.678 47.4119 97.3769 47.1506 96.983C46.893 96.589 46.7642 96.1061 46.7642 95.5341C46.7642 95.0417 46.8589 94.6364 47.0483 94.3182C47.2377 94 47.4934 93.7481 47.8153 93.5625C48.1373 93.3769 48.4972 93.2367 48.8949 93.142C49.2926 93.0473 49.6979 92.9754 50.1108 92.9261C50.6335 92.8655 51.0578 92.8163 51.3835 92.7784C51.7093 92.7367 51.946 92.6705 52.0938 92.5795C52.2415 92.4886 52.3153 92.3409 52.3153 92.1364V92.0966C52.3153 91.6004 52.1752 91.2159 51.8949 90.9432C51.6184 90.6705 51.2055 90.5341 50.6562 90.5341C50.0843 90.5341 49.6335 90.661 49.304 90.9148C48.9782 91.1648 48.7528 91.4432 48.6278 91.75L47.0312 91.3864C47.2206 90.8561 47.4972 90.428 47.8608 90.1023C48.2282 89.7727 48.6506 89.5341 49.1278 89.3864C49.6051 89.2348 50.107 89.1591 50.6335 89.1591C50.982 89.1591 51.3513 89.2008 51.7415 89.2841C52.1354 89.3636 52.5028 89.5114 52.8438 89.7273C53.1884 89.9432 53.4706 90.2519 53.6903 90.6534C53.91 91.0511 54.0199 91.5682 54.0199 92.2045V98H52.3608V96.8068H52.2926C52.1828 97.0265 52.018 97.2424 51.7983 97.4545C51.5786 97.6667 51.2964 97.8428 50.9517 97.983C50.607 98.1231 50.1941 98.1932 49.7131 98.1932ZM50.0824 96.8295C50.5521 96.8295 50.9536 96.7367 51.2869 96.5511C51.6241 96.3655 51.8797 96.1231 52.054 95.8239C52.232 95.5208 52.321 95.197 52.321 94.8523V93.7273C52.2604 93.7879 52.143 93.8447 51.9688 93.8977C51.7983 93.947 51.6032 93.9905 51.3835 94.0284C51.1638 94.0625 50.9498 94.0947 50.7415 94.125C50.5331 94.1515 50.3589 94.1742 50.2188 94.1932C49.8892 94.2348 49.5881 94.3049 49.3153 94.4034C49.0464 94.5019 48.8305 94.6439 48.6676 94.8295C48.5085 95.0114 48.429 95.2538 48.429 95.5568C48.429 95.9773 48.5843 96.2955 48.8949 96.5114C49.2055 96.7235 49.6013 96.8295 50.0824 96.8295ZM56.2827 98V89.2727H57.9247V90.6591H58.0156C58.1747 90.1894 58.455 89.8201 58.8565 89.5511C59.2618 89.2784 59.7202 89.142 60.2315 89.142C60.3376 89.142 60.4626 89.1458 60.6065 89.1534C60.7543 89.161 60.8698 89.1705 60.9531 89.1818V90.8068C60.8849 90.7879 60.7637 90.767 60.5895 90.7443C60.4152 90.7178 60.241 90.7045 60.0668 90.7045C59.6652 90.7045 59.3073 90.7898 58.9929 90.9602C58.6823 91.1269 58.4361 91.3598 58.2543 91.6591C58.0724 91.9545 57.9815 92.2917 57.9815 92.6705V98H56.2827ZM67.0128 89.2727V90.6364H62.2457V89.2727H67.0128ZM63.5241 87.1818H65.223V95.4375C65.223 95.767 65.2723 96.0152 65.3707 96.1818C65.4692 96.3447 65.5961 96.4564 65.7514 96.517C65.9105 96.5739 66.0829 96.6023 66.2685 96.6023C66.4048 96.6023 66.5241 96.5928 66.6264 96.5739C66.7287 96.5549 66.8082 96.5398 66.8651 96.5284L67.1719 97.9318C67.0734 97.9697 66.9332 98.0076 66.7514 98.0455C66.5696 98.0871 66.3423 98.1098 66.0696 98.1136C65.6226 98.1212 65.206 98.0417 64.8196 97.875C64.4332 97.7083 64.1207 97.4508 63.8821 97.1023C63.6435 96.7538 63.5241 96.3163 63.5241 95.7898V87.1818ZM75.5412 98L72.3139 86.3636H74.1605L76.4276 95.375H76.5355L78.8935 86.3636H80.723L83.081 95.3807H83.1889L85.4503 86.3636H87.3026L84.0696 98H82.3026L79.8537 89.2841H79.7628L77.3139 98H75.5412ZM90.4474 98.1932C89.8944 98.1932 89.3944 98.0909 88.9474 97.8864C88.5005 97.678 88.1463 97.3769 87.8849 96.983C87.6274 96.589 87.4986 96.1061 87.4986 95.5341C87.4986 95.0417 87.5933 94.6364 87.7827 94.3182C87.9721 94 88.2277 93.7481 88.5497 93.5625C88.8717 93.3769 89.2315 93.2367 89.6293 93.142C90.027 93.0473 90.4323 92.9754 90.8452 92.9261C91.3679 92.8655 91.7921 92.8163 92.1179 92.7784C92.4437 92.7367 92.6804 92.6705 92.8281 92.5795C92.9759 92.4886 93.0497 92.3409 93.0497 92.1364V92.0966C93.0497 91.6004 92.9096 91.2159 92.6293 90.9432C92.3527 90.6705 91.9399 90.5341 91.3906 90.5341C90.8187 90.5341 90.3679 90.661 90.0384 90.9148C89.7126 91.1648 89.4872 91.4432 89.3622 91.75L87.7656 91.3864C87.955 90.8561 88.2315 90.428 88.5952 90.1023C88.9626 89.7727 89.3849 89.5341 89.8622 89.3864C90.3395 89.2348 90.8414 89.1591 91.3679 89.1591C91.7164 89.1591 92.0857 89.2008 92.4759 89.2841C92.8698 89.3636 93.2372 89.5114 93.5781 89.7273C93.9228 89.9432 94.205 90.2519 94.4247 90.6534C94.6444 91.0511 94.7543 91.5682 94.7543 92.2045V98H93.0952V96.8068H93.027C92.9171 97.0265 92.7524 97.2424 92.5327 97.4545C92.313 97.6667 92.0308 97.8428 91.6861 97.983C91.3414 98.1231 90.9285 98.1932 90.4474 98.1932ZM90.8168 96.8295C91.2865 96.8295 91.688 96.7367 92.0213 96.5511C92.3584 96.3655 92.6141 96.1231 92.7884 95.8239C92.9664 95.5208 93.0554 95.197 93.0554 94.8523V93.7273C92.9948 93.7879 92.8774 93.8447 92.7031 93.8977C92.5327 93.947 92.3376 93.9905 92.1179 94.0284C91.8982 94.0625 91.6842 94.0947 91.4759 94.125C91.2675 94.1515 91.0933 94.1742 90.9531 94.1932C90.6236 94.2348 90.3224 94.3049 90.0497 94.4034C89.7808 94.5019 89.5649 94.6439 89.402 94.8295C89.2429 95.0114 89.1634 95.2538 89.1634 95.5568C89.1634 95.9773 89.3187 96.2955 89.6293 96.5114C89.9399 96.7235 90.3357 96.8295 90.8168 96.8295ZM101.091 89.2727V90.6364H96.3239V89.2727H101.091ZM97.6023 87.1818H99.3011V95.4375C99.3011 95.767 99.3504 96.0152 99.4489 96.1818C99.5473 96.3447 99.6742 96.4564 99.8295 96.517C99.9886 96.5739 100.161 96.6023 100.347 96.6023C100.483 96.6023 100.602 96.5928 100.705 96.5739C100.807 96.5549 100.886 96.5398 100.943 96.5284L101.25 97.9318C101.152 97.9697 101.011 98.0076 100.83 98.0455C100.648 98.0871 100.42 98.1098 100.148 98.1136C99.7008 98.1212 99.2841 98.0417 98.8977 97.875C98.5114 97.7083 98.1989 97.4508 97.9602 97.1023C97.7216 96.7538 97.6023 96.3163 97.6023 95.7898V87.1818ZM106.553 98.1761C105.708 98.1761 104.981 97.9848 104.371 97.6023C103.765 97.2159 103.299 96.6837 102.973 96.0057C102.647 95.3277 102.484 94.5511 102.484 93.6761C102.484 92.7898 102.651 92.0076 102.984 91.3295C103.318 90.6477 103.787 90.1155 104.393 89.733C105 89.3504 105.714 89.1591 106.536 89.1591C107.198 89.1591 107.789 89.2822 108.308 89.5284C108.827 89.7708 109.246 90.1117 109.564 90.5511C109.886 90.9905 110.077 91.5038 110.138 92.0909H108.484C108.393 91.6818 108.185 91.3295 107.859 91.0341C107.537 90.7386 107.106 90.5909 106.564 90.5909C106.09 90.5909 105.676 90.7159 105.32 90.9659C104.967 91.2121 104.693 91.5644 104.496 92.0227C104.299 92.4773 104.2 93.0152 104.2 93.6364C104.2 94.2727 104.297 94.822 104.49 95.2841C104.683 95.7462 104.956 96.1042 105.308 96.358C105.664 96.6117 106.083 96.7386 106.564 96.7386C106.886 96.7386 107.178 96.6799 107.439 96.5625C107.704 96.4413 107.926 96.2689 108.104 96.0455C108.286 95.822 108.412 95.553 108.484 95.2386H110.138C110.077 95.803 109.893 96.3068 109.587 96.75C109.28 97.1932 108.869 97.5417 108.354 97.7955C107.842 98.0492 107.242 98.1761 106.553 98.1761ZM113.653 92.8182V98H111.955V86.3636H113.631V90.6932H113.739C113.943 90.2235 114.256 89.8504 114.676 89.5739C115.097 89.2973 115.646 89.1591 116.324 89.1591C116.922 89.1591 117.445 89.2822 117.892 89.5284C118.343 89.7746 118.691 90.142 118.938 90.6307C119.188 91.1155 119.312 91.7216 119.312 92.4489V98H117.614V92.6534C117.614 92.0133 117.449 91.517 117.119 91.1648C116.79 90.8087 116.331 90.6307 115.744 90.6307C115.343 90.6307 114.983 90.7159 114.665 90.8864C114.35 91.0568 114.102 91.3068 113.92 91.6364C113.742 91.9621 113.653 92.3561 113.653 92.8182ZM125.341 98.1761C124.481 98.1761 123.741 97.9924 123.119 97.625C122.502 97.2538 122.025 96.733 121.688 96.0625C121.354 95.3883 121.188 94.5985 121.188 93.6932C121.188 92.7992 121.354 92.0114 121.688 91.3295C122.025 90.6477 122.494 90.1155 123.097 89.733C123.703 89.3504 124.411 89.1591 125.222 89.1591C125.714 89.1591 126.191 89.2405 126.653 89.4034C127.116 89.5663 127.53 89.822 127.898 90.1705C128.265 90.5189 128.555 90.9716 128.767 91.5284C128.979 92.0814 129.085 92.7538 129.085 93.5455V94.1477H122.148V92.875H127.42C127.42 92.428 127.33 92.0322 127.148 91.6875C126.966 91.339 126.71 91.0644 126.381 90.8636C126.055 90.6629 125.672 90.5625 125.233 90.5625C124.756 90.5625 124.339 90.6799 123.983 90.9148C123.631 91.1458 123.358 91.4489 123.165 91.8239C122.975 92.1951 122.881 92.5985 122.881 93.0341V94.0284C122.881 94.6117 122.983 95.108 123.188 95.517C123.396 95.9261 123.686 96.2386 124.057 96.4545C124.428 96.6667 124.862 96.7727 125.358 96.7727C125.68 96.7727 125.973 96.7273 126.239 96.6364C126.504 96.5417 126.733 96.4015 126.926 96.2159C127.119 96.0303 127.267 95.8011 127.369 95.5284L128.977 95.8182C128.848 96.2917 128.617 96.7064 128.284 97.0625C127.955 97.4148 127.54 97.6894 127.04 97.8864C126.544 98.0795 125.977 98.1761 125.341 98.1761ZM137.51 91.4034L135.97 91.6761C135.906 91.4792 135.804 91.2917 135.663 91.1136C135.527 90.9356 135.341 90.7898 135.107 90.6761C134.872 90.5625 134.578 90.5057 134.226 90.5057C133.745 90.5057 133.343 90.6136 133.021 90.8295C132.699 91.0417 132.538 91.3163 132.538 91.6534C132.538 91.9451 132.646 92.1799 132.862 92.358C133.078 92.536 133.427 92.6818 133.908 92.7955L135.294 93.1136C136.097 93.2992 136.696 93.5852 137.089 93.9716C137.483 94.358 137.68 94.8598 137.68 95.4773C137.68 96 137.529 96.4659 137.226 96.875C136.927 97.2803 136.508 97.5985 135.97 97.8295C135.436 98.0606 134.817 98.1761 134.112 98.1761C133.135 98.1761 132.338 97.9678 131.72 97.5511C131.103 97.1307 130.724 96.5341 130.584 95.7614L132.226 95.5114C132.328 95.9394 132.538 96.2633 132.857 96.483C133.175 96.6989 133.589 96.8068 134.101 96.8068C134.658 96.8068 135.103 96.6913 135.436 96.4602C135.769 96.2254 135.936 95.9394 135.936 95.6023C135.936 95.3295 135.834 95.1004 135.629 94.9148C135.429 94.7292 135.12 94.589 134.703 94.4943L133.226 94.1705C132.411 93.9848 131.809 93.6894 131.419 93.2841C131.033 92.8788 130.839 92.3655 130.839 91.7443C130.839 91.2292 130.983 90.7784 131.271 90.392C131.559 90.0057 131.957 89.7045 132.464 89.4886C132.972 89.2689 133.554 89.1591 134.209 89.1591C135.152 89.1591 135.894 89.3636 136.436 89.7727C136.978 90.178 137.336 90.7216 137.51 91.4034Z" fill="black"/>
<defs>
<clipPath id="clip0_2603_1939">
<rect width="48" height="48" fill="white" transform="translate(56 24)"/>
</clipPath>
</defs>
</svg>
